<?xml version="1.0" encoding="UTF-8" standalone="no"?>
<!-- Created with Inkscape (http://www.inkscape.org/) -->

<svg
   xmlns:dc="http://purl.org/dc/elements/1.1/"
   xmlns:cc="http://creativecommons.org/ns#"
   xmlns:rdf="http://www.w3.org/1999/02/22-rdf-syntax-ns#"
   xmlns:svg="http://www.w3.org/2000/svg"
   xmlns="http://www.w3.org/2000/svg"
   xmlns:sodipodi="http://sodipodi.sourceforge.net/DTD/sodipodi-0.dtd"
   xmlns:inkscape="http://www.inkscape.org/namespaces/inkscape"
   width="31.227552mm"
   height="16.013857mm"
   viewBox="0 0 31.227552 16.013857"
   version="1.1"
   id="svg8"
   inkscape:version="0.92.4 (5da689c313, 2019-01-14)"
   sodipodi:docname="logo.svg">
  <defs
     id="defs2" />
  <sodipodi:namedview
     id="base"
     pagecolor="#ffffff"
     bordercolor="#666666"
     borderopacity="1.0"
     inkscape:pageopacity="0.0"
     inkscape:pageshadow="2"
     inkscape:zoom="8"
     inkscape:cx="64.034259"
     inkscape:cy="7.9146537"
     inkscape:document-units="mm"
     inkscape:current-layer="layer1"
     showgrid="false"
     inkscape:snap-grids="false"
     inkscape:snap-to-guides="false"
     inkscape:snap-page="false"
     inkscape:window-width="1920"
     inkscape:window-height="1017"
     inkscape:window-x="1912"
     inkscape:window-y="-8"
     inkscape:window-maximized="1" />
  <metadata
     id="metadata5">
    <rdf:RDF>
      <cc:Work
         rdf:about="">
        <dc:format>image/svg+xml</dc:format>
        <dc:type
           rdf:resource="http://purl.org/dc/dcmitype/StillImage" />
        <dc:title></dc:title>
      </cc:Work>
    </rdf:RDF>
  </metadata>
  <g
     inkscape:label="Ebene 1"
     inkscape:groupmode="layer"
     id="layer1"
     transform="translate(-48.026007,-49.158564)">
    <g
       aria-label="e"
       style="font-style:normal;font-weight:normal;font-size:50.79999924px;line-height:1.25;font-family:sans-serif;letter-spacing:0px;word-spacing:0px;fill:#000000;fill-opacity:1;stroke:none;stroke-width:0.26458332"
       id="text3719"
       transform="translate(-42.049232,-38.29666)" />
    <flowRoot
       xml:space="preserve"
       id="flowRoot3721"
       style="font-style:normal;font-weight:normal;font-size:40px;line-height:1.25;font-family:sans-serif;letter-spacing:0px;word-spacing:0px;fill:#000000;fill-opacity:1;stroke:none"
       transform="scale(0.26458333)"><flowRegion
         id="flowRegion3723"><rect
           id="rect3725"
           width="368.57144"
           height="560"
           x="157.14285"
           y="239.66254" /></flowRegion><flowPara
         id="flowPara3727"></flowPara></flowRoot>    <g
       aria-label="RAM"
       style="font-style:normal;font-variant:normal;font-weight:bold;font-stretch:normal;font-size:10.58333302px;line-height:1.25;font-family:Impact;-inkscape-font-specification:'Impact Bold';letter-spacing:0px;word-spacing:0px;fill:#00ff11;fill-opacity:1;stroke:none;stroke-width:0.26458332"
       id="text3738" />
    <g
       aria-label="me"
       style="font-style:normal;font-variant:normal;font-weight:bold;font-stretch:normal;font-size:10.58333302px;line-height:1.25;font-family:Impact;-inkscape-font-specification:'Impact Bold';letter-spacing:0px;word-spacing:0px;fill:#8bff93;fill-opacity:1;stroke:none;stroke-width:0.26458332"
       id="text3742" />
    <path
       id="path3751"
       style="fill:#00ff11;fill-opacity:1;stroke-width:0.18751258"
       d="m 64.884762,63.213518 c -0.527422,0 -0.954982,0.42756 -0.954981,0.954982 1e-6,0.527421 0.42756,0.954979 0.954981,0.954979 0.52742,-10e-7 0.954978,-0.427559 0.954979,-0.954979 10e-7,-0.527421 -0.427558,-0.954981 -0.954979,-0.954982 z m 11.88833,-5.060997 c -0.47887,0 -0.902616,0.09302 -1.271241,0.279054 -0.368625,0.182591 -0.633899,0.447863 -0.795816,0.795816 -0.161923,0.344511 -0.24288,0.816486 -0.24288,1.415934 v 1.999879 c 0,0.509874 0.03617,0.899171 0.108519,1.167887 0.07235,0.265274 0.201538,0.509876 0.387575,0.733806 0.189478,0.220485 0.45303,0.394465 0.790649,0.521933 0.337619,0.127468 0.699526,0.103867 1.140499,0.103867 0.454753,0 0.859378,0.0236 1.1591,-0.103867 0.303171,-0.130919 0.55294,-0.325565 0.749311,-0.583946 0.196366,-0.258384 0.320389,-0.501258 0.37207,-0.728636 0.05512,-0.227375 0.08268,-0.552937 0.08268,-0.976686 V 62.271134 H 77.27435 v 0.904338 c 0,0.341064 -0.02756,0.571884 -0.08268,0.692462 -0.05168,0.117136 -0.156753,0.175702 -0.315228,0.175702 -0.127468,0 -0.213595,-0.04479 -0.258381,-0.134358 -0.04479,-0.08957 -0.06718,-0.289388 -0.06718,-0.599448 v -1.483114 h 2.702679 v -0.909505 c 0,-0.664903 -0.07752,-1.179944 -0.232545,-1.545124 -0.151585,-0.368626 -0.418579,-0.663184 -0.800984,-0.883669 -0.37896,-0.223933 -0.861274,-0.335897 -1.446939,-0.335897 z m 0.09818,1.214398 c 0.117136,0 0.194651,0.05168 0.232545,0.155028 0.03789,0.103354 0.05684,0.332454 0.05684,0.687297 v 0.501261 h -0.609782 v -0.501261 c 0,-0.38585 0.01722,-0.62184 0.05168,-0.707967 0.03445,-0.08957 0.124024,-0.134358 0.268719,-0.134358 z m -7.14185,-1.214591 c -0.285943,2e-6 -0.54088,0.06546 -0.76481,0.196371 -0.223933,0.127468 -0.416856,0.320394 -0.578776,0.578776 l 0.03617,-0.651121 h -2.06189 v 6.85746 h 2.025716 v -4.754232 c 0,-0.330726 0.0034,-0.546047 0.01033,-0.645953 0.0069,-0.103355 0.04306,-0.189482 0.108521,-0.258385 0.06546,-0.07235 0.144693,-0.108518 0.23771,-0.108518 0.14814,0 0.237712,0.06718 0.268719,0.201538 0.03445,0.134358 0.05168,0.537435 0.05168,1.209228 v 4.356322 h 2.025716 v -4.470011 c 0,-0.589111 0.02067,-0.952569 0.06201,-1.090372 0.04479,-0.137805 0.141248,-0.206705 0.289388,-0.206705 0.144696,0 0.23599,0.07062 0.273884,0.211873 0.04134,0.137802 0.06201,0.499538 0.06201,1.085204 v 4.470011 h 2.025716 v -4.873085 c 0,-0.561552 -0.03273,-0.966351 -0.09819,-1.214398 -0.06546,-0.251492 -0.215318,-0.463365 -0.449585,-0.635619 -0.23082,-0.172254 -0.523653,-0.258384 -0.878499,-0.258384 -0.268716,2e-6 -0.513318,0.06546 -0.733806,0.196371 -0.220485,0.127468 -0.418579,0.320394 -0.594278,0.578776 -0.320394,-0.516763 -0.759642,-0.775147 -1.317749,-0.775147 z M 59.105268,49.158564 v 8.366413 h 1.901692 v -5.519042 l 0.800987,5.519042 H 63.1567 l 0.759645,-5.648232 0.03307,10.807607 h 1.901693 L 65.818038,49.158564 H 62.981001 L 62.484907,53.0653 62.185184,50.936233 c -0.09302,-0.68213 -0.180869,-1.274686 -0.263549,-1.777669 z m -4.7644,1.93e-4 -1.105877,8.366414 h 2.253094 l 0.129191,-1.503784 h 0.780314 l 0.108522,1.503784 h 2.227254 l -1.245404,-8.366414 z m 1.663983,1.870686 c 0.110241,1.39182 0.220485,2.561426 0.330729,3.50883 h -0.744141 c 0.05512,-0.740695 0.192921,-1.910304 0.413412,-3.50883 z m -7.978844,-1.870686 v 8.366414 h 2.175579 v -3.772379 c 0.299723,0 0.484039,0.0534 0.552937,0.160194 0.07235,0.106799 0.108521,0.38413 0.108521,0.831993 v 2.780192 h 2.020549 v -2.206586 c 0,-0.675238 -0.01895,-1.086927 -0.05684,-1.235064 -0.03445,-0.151585 -0.125749,-0.31695 -0.273886,-0.496094 -0.14814,-0.179144 -0.437528,-0.322117 -0.868164,-0.428916 0.475422,-0.04479 0.794094,-0.179147 0.956014,-0.403077 0.161919,-0.223933 0.242879,-0.661455 0.242879,-1.312579 0,-0.713134 -0.115411,-1.231622 -0.346231,-1.555462 -0.227378,-0.327284 -0.523655,-0.530545 -0.888836,-0.609782 -0.361733,-0.07924 -1.05592,-0.118854 -2.082559,-0.118854 z m 2.175579,1.431436 c 0.251492,0 0.423743,0.04134 0.516766,0.124023 0.09646,0.08268 0.144692,0.256659 0.144692,0.521933 v 0.45992 c 0,0.368625 -0.04995,0.587391 -0.14986,0.656291 -0.09647,0.06546 -0.266996,0.09818 -0.511598,0.09818 z"
       inkscape:connector-curvature="0" />
    <path
       style="fill:#00ff11;fill-opacity:1;stroke-width:0.25"
       d="m 69.516221,47.492181 v -12.875 h 3.783981 3.783981 l -0.154199,1.125 c -0.08481,0.61875 -0.103061,1.125 -0.04056,1.125 0.0625,0 0.594724,-0.480393 1.182718,-1.067541 2.317655,-2.31432 6.007046,-2.196455 8.122911,0.259504 l 0.803833,0.933037 0.946167,-0.975786 c 2.284215,-2.355719 5.733431,-2.546669 7.844265,-0.434262 1.39978,1.400822 1.476903,2.140892 1.476903,14.172354 v 10.612694 h -3.75 -3.75 v -10.5 c 0,-10.166666 -0.01587,-10.515873 -0.5,-11 -0.619294,-0.619293 -0.79408,-0.621834 -1.534804,-0.02231 l -0.590196,0.47769 -0.07519,10.52231 -0.07518,10.52231 H 83.253536 79.516221 V 49.747945 39.128708 l -0.608236,-0.398531 c -0.746949,-0.48942 -1.541957,-0.158059 -1.903731,0.79348 -0.136464,0.358927 -0.238033,4.939487 -0.238033,10.734799 v 10.108725 h -3.625 -3.625 z"
       id="path4647"
       inkscape:connector-curvature="0"
       transform="matrix(0.26458333,0,0,0.26458333,48.026007,49.158564)" />
    <path
       style="fill:#8bff93;fill-opacity:1;stroke-width:0.125"
       d="m 69.253765,60.258963 c -0.03275,-0.08594 -0.04504,-5.921875 -0.02733,-12.96875 l 0.03221,-12.8125 3.915167,-0.03304 3.915168,-0.03304 -0.04017,1.104887 -0.04017,1.104887 0.8125,-0.836731 c 0.936131,-0.964048 1.778477,-1.434702 3.046738,-1.702341 2.088868,-0.440809 4.350786,0.380076 5.597587,2.031451 l 0.50416,0.667756 0.901793,-0.928514 c 1.041117,-1.071967 2.060476,-1.624311 3.375533,-1.829047 2.407325,-0.374785 4.930795,0.928717 5.68133,2.934698 0.461467,1.233382 0.517859,2.677769 0.517859,13.264114 v 10.19242 H 93.577135 89.70812 L 89.67089,50.008963 C 89.63673,40.462161 89.61597,39.570412 89.419528,39.211611 89.178323,38.771052 88.979912,38.665213 88.39522,38.665213 c -0.666915,0 -0.935068,0.407705 -1.076337,1.636483 -0.06744,0.586613 -0.12125,5.262514 -0.12178,10.582267 l -9.49e-4,9.53125 H 83.32649 79.456832 L 79.42024,49.924291 c -0.03639,-10.43273 -0.03805,-10.492879 -0.299009,-10.84375 -0.187793,-0.252494 -0.39068,-0.36377 -0.713458,-0.391308 -0.572961,-0.04888 -0.901639,0.12839 -1.17908,0.635936 -0.204169,0.373503 -0.222688,1.148781 -0.256692,10.746294 l -0.03665,10.34375 h -3.811025 c -2.933732,0 -3.82473,-0.03597 -3.870561,-0.15625 z"
       id="path4657"
       inkscape:connector-curvature="0"
       transform="matrix(0.26458333,0,0,0.26458333,48.026007,49.158564)" />
    <path
       style="fill:#8bff93;fill-opacity:1;stroke-width:0.04419417"
       d="m 106.31838,60.481224 c -0.56262,-0.05961 -1.08561,-0.1811 -1.59413,-0.370324 -1.82392,-0.678703 -3.15366,-1.866711 -3.95063,-3.529564 -0.54096,-1.128684 -0.75584,-2.272346 -0.841542,-4.478842 -0.05554,-1.430025 -0.05517,-8.580961 5.07e-4,-9.69013 0.149315,-2.974836 0.790885,-4.797625 2.162155,-6.14299 1.64346,-1.612408 4.39919,-2.453521 7.41321,-2.262682 2.75106,0.174189 4.74005,0.972092 6.25805,2.510478 1.28661,1.303896 1.89658,2.880622 2.178,5.630029 0.0509,0.497 0.0769,1.379436 0.0948,3.215126 l 0.0247,2.530117 h -5.11026 -5.11026 v 3.326771 c 0,4.000247 0.0263,4.324028 0.38288,4.718749 0.29851,0.330414 0.95925,0.403628 1.48216,0.164232 0.69891,-0.31997 0.8305,-1.048231 0.8307,-4.597128 l 8e-5,-1.977939 3.74546,0.0113 3.74546,0.0113 -0.007,1.723573 c -0.0119,2.977651 -0.17619,4.000721 -0.85311,5.311708 -0.39524,0.76548 -0.87335,1.417264 -1.50342,2.049558 -0.98562,0.989101 -2.05053,1.580067 -3.23085,1.792937 -0.35628,0.06426 -0.79764,0.07655 -3.0678,0.08546 -1.45841,0.0057 -2.83064,-0.0086 -3.0494,-0.03173 z m 3.76597,-18.632335 c -0.0263,-2.078749 -0.0758,-2.541339 -0.30899,-2.887371 -0.16159,-0.239779 -0.39838,-0.348316 -0.76114,-0.348879 -0.38119,-5.92e-4 -0.59736,0.05656 -0.77302,0.204365 -0.33202,0.27938 -0.35945,0.482712 -0.38511,2.855108 l -0.0214,1.977689 h 1.13622 1.13621 z"
       id="path4659"
       inkscape:connector-curvature="0"
       transform="matrix(0.26458333,0,0,0.26458333,48.026007,49.158564)" />
  </g>
</svg>
